<svg width="30" height="30" viewBox="0 0 30 30" fill="none" xmlns="http://www.w3.org/2000/svg">
<circle cx="15" cy="15" r="15" fill="#F6F6F6"/>
<path fill-rule="evenodd" clip-rule="evenodd" d="M8.33333 25H9.93464V22.9745H7.45098V25H8.33333ZM25 7.46264C25 6.1024 24.0523 5 22.8431 5H14.6078C13.3987 5 12.451 6.1024 12.451 7.46264V22.5187C12.451 23.8789 13.3987 24.9813 14.6078 24.9813H22.8431C24.0523 24.9813 25 23.8789 25 22.5187V7.46264ZM23.2353 7.46264V22.5187C23.2353 22.7616 23.0719 22.9596 22.8431 22.9596H14.6078C14.3791 22.9596 14.2157 22.7616 14.2157 22.5187V7.46264C14.2157 7.21974 14.3791 7.02166 14.6078 7.02166H22.8431C23.0719 7.02166 23.2353 7.21974 23.2353 7.46264ZM18.7255 15.0262C20.1307 15.0262 21.2418 16.3191 21.2418 17.9148C21.2418 19.5104 20.1307 20.8071 18.7255 20.8071C17.3203 20.8071 16.2092 19.5104 16.2092 17.9148C16.2092 16.3191 17.3203 15.0262 18.7255 15.0262ZM9.05229 5H7.15686C5.94771 5 5 6.09493 5 7.44396V16.7563C5 18.1053 5.94771 19.2003 7.15686 19.2003H9.93464V17.1786H7.15686C6.9281 17.1786 6.76471 16.988 6.76471 16.7563V7.44396C6.76471 7.21227 6.9281 7.02166 7.15686 7.02166H9.93464V5H9.05229ZM18.7255 9.20403C19.4118 9.20403 20 9.8505 20 10.6465C20 11.4462 19.4118 12.0927 18.7255 12.0927C18.0392 12.0927 17.451 11.4462 17.451 10.6465C17.451 9.8505 18.0392 9.20403 18.7255 9.20403Z" fill="black"/>
</svg>
